<?xml version="1.0" encoding="UTF-8" standalone="no"?>
<!-- Generator: Adobe Illustrator 23.0.6, SVG Export Plug-In . SVG Version: 6.00 Build 0)  -->

<svg
   xmlns:dc="http://purl.org/dc/elements/1.1/"
   xmlns:cc="http://creativecommons.org/ns#"
   xmlns:rdf="http://www.w3.org/1999/02/22-rdf-syntax-ns#"
   xmlns:svg="http://www.w3.org/2000/svg"
   xmlns="http://www.w3.org/2000/svg"
   xmlns:sodipodi="http://sodipodi.sourceforge.net/DTD/sodipodi-0.dtd"
   xmlns:inkscape="http://www.inkscape.org/namespaces/inkscape"
   version="1.1"
   id="Layer_1"
   x="0px"
   y="0px"
   viewBox="0 0 100 100"
   xml:space="preserve"
   sodipodi:docname="fbc-logo.svg"
   width="50"
   height="50"
   inkscape:version="0.92.4 (f8dce91, 2019-08-02)"><metadata
   id="metadata244"><rdf:RDF><cc:Work
       rdf:about=""><dc:format>image/svg+xml</dc:format><dc:type
         rdf:resource="http://purl.org/dc/dcmitype/StillImage" /><dc:title></dc:title></cc:Work></rdf:RDF></metadata><defs
   id="defs242" /><sodipodi:namedview
   pagecolor="#ffffff"
   bordercolor="#666666"
   borderopacity="1"
   objecttolerance="10"
   gridtolerance="10"
   guidetolerance="10"
   inkscape:pageopacity="0"
   inkscape:pageshadow="2"
   inkscape:window-width="1366"
   inkscape:window-height="704"
   id="namedview240"
   showgrid="false"
   inkscape:zoom="4.5576923"
   inkscape:cx="51.012658"
   inkscape:cy="57.957683"
   inkscape:window-x="0"
   inkscape:window-y="27"
   inkscape:window-maximized="1"
   inkscape:current-layer="Layer_1" />
<style
   type="text/css"
   id="style147">
	.st0{fill:none;}
	.st1{fill:#D59B29;}
	.st2{fill:#B5ABA3;}
	.st3{fill:#39251E;}
	.st4{fill:#724F43;}
	.st5{fill:#292854;}
</style>
<polygon
   class="st0"
   points="129.99,21.31 129.1,12.64 129.67,-13.16 61.53,-38.68 84.52,-15.69 88.73,5.63 94.23,21.31 "
   id="polygon149"
   style="fill:none"
   transform="translate(-3.07173,32.320675)" />
<path
   class="st1"
   d="m 81.325701,33.272719 h -60.04186 l 0.167902,0.503707 -7.538813,62.140639 -2.820758,8.008945 c 0,0 -13.6168763,5.80942 -14.1037929,4.55016 -0.083951,-0.21828 -0.8395115,-0.45334 -1.9980374,-0.6884 v 35.00762 H 103.42164 V 111.12902 L 89.250689,110.9947 Z"
   id="path151"
   inkscape:connector-curvature="0"
   style="fill:#d59b29;stroke-width:1.67902291" />
<polyline
   class="st2"
   points="112.86,1.55 113.31,93.52 137.21,85.84 137.14,85.52 134.45,53.25 133.39,52.19 131.36,28.09   130.83,27.45 130.83,25.74 131.89,25.42 130.61,23.4 130.29,18.81 129.12,15.3 126.35,15.72 123.58,13.59 122.62,10.39   119.63,10.07 118.14,8.47 116.01,2.71 114.55,2.89 113.7,2.57 "
   id="polyline153"
   style="fill:#b5aba3"
   transform="matrix(1.6790229,0,0,1.6790229,-136.93049,-2.5072597)" />
<rect
   x="18.93321"
   y="29.192692"
   class="st3"
   width="27.569557"
   height="54.417133"
   id="rect155"
   style="fill:#39251e;stroke-width:1.67902291" />
<path
   class="st1"
   d="m 41.348165,41.348819 0.05037,4.080026 c 0,0 0.604449,0.486916 0.889883,0.587658 0.285433,0.08395 1.074574,-0.402966 1.074574,-0.402966 v -3.307675"
   id="path157"
   inkscape:connector-curvature="0"
   style="fill:#d59b29;stroke-width:1.67902291" />
<path
   class="st1"
   d="m 33.356016,50.600235 c 0,-0.01679 0,-0.01679 0,-0.03358 0,0 0,0 -0.01679,0 -0.05037,0.604448 -0.470126,1.981247 -2.669646,3.744221 l -0.251854,13.650456 4.953118,-2.552114 0.554078,-14.003052 c 0,0 -2.19952,0.402966 -2.568906,-0.805931 z m 7.286959,-3.844962 c 0,-0.01679 0,-0.03358 -0.01679,-0.05037 v 0 c -0.03358,0.604448 -0.453336,1.998037 -2.669647,3.761012 L 37.704685,64.11637 42.657803,61.564255 43.21188,47.561204 c 0,0.01679 -2.19952,0.419756 -2.568905,-0.805931 z"
   id="path159"
   inkscape:connector-curvature="0"
   style="fill:#d59b29;stroke-width:1.67902291" />
<path
   class="st1"
   d="m 34.363429,44.253529 c 0,0 0.03358,-0.03358 0.08395,-0.06716 0.436546,-0.386176 2.451374,-2.132359 2.753598,-2.300262 0.319014,-0.184692 1.074575,-0.453336 1.410379,-0.453336 0.335805,0 0.335805,0 0.335805,0 l -1.779764,2.770388"
   id="path161"
   inkscape:connector-curvature="0"
   style="fill:#d59b29;stroke-width:1.67902291" />
<path
   class="st1"
   d="m 35.975291,45.546376 0.05037,4.247928 c 0,0 -0.554078,0.268644 -0.889882,0.134322 -0.319014,-0.134322 -0.604448,-0.990623 -0.604448,-1.124945 0,-0.134322 -0.100742,-2.686437 -0.100742,-2.871129 0,-0.184693 -0.470126,-0.805931 -0.470126,-0.805931 l 1.964457,0.134321 z"
   id="path163"
   inkscape:connector-curvature="0"
   style="fill:#d59b29;stroke-width:1.67902291" />
<path
   class="st1"
   d="m 37.889377,44.740445 -0.100741,3.139773 c 0,0 1.494331,-1.343218 1.679023,-1.880505 0.184693,-0.537288 0.235063,-1.208897 0.235063,-1.208897 l 0.100742,-2.014827 z"
   id="path165"
   inkscape:connector-curvature="0"
   style="fill:#d59b29;stroke-width:1.67902291" />
<path
   class="st1"
   d="m 32.617245,47.074287 0.100742,2.686437 c 0,0 -1.124945,1.964457 -1.44396,2.2331 -0.319014,0.268644 0,-3.274094 0,-3.274094 z"
   id="path167"
   inkscape:connector-curvature="0"
   style="fill:#d59b29;stroke-width:1.67902291" />
<path
   class="st4"
   d="m 71.872801,33.407041 c 0,0 2.367423,4.482991 2.770388,5.473614 0.805931,2.031618 3.811382,12.340819 3.811382,12.340819 l 1.46075,29.063887 3.66027,3.005451 -4.298298,-0.319015 -15.34627,-10.3092 v -3.055822 l -1.46075,-2.652856 -0.654819,-30.642169 -1.46075,-1.057784"
   id="path169"
   inkscape:connector-curvature="0"
   style="fill:#724f43;stroke-width:1.67902291" />
<polyline
   class="st4"
   points="112.87,8.09 130.15,23.58 112.48,10.95 "
   id="polyline171"
   style="fill:#724f43"
   transform="matrix(1.6790229,0,0,1.6790229,-136.93049,-2.5072597)" />
<path
   class="st1"
   d="m 67.591293,53.740008 0.436546,14.003051 3.962494,2.552115 -0.201483,-13.650456 c -1.762974,-1.746184 -2.098778,-3.122983 -2.132359,-3.744221 0,0 0,0 0,0 0,0.01679 0,0.01679 0,0.03358 -0.302224,1.208897 -2.065198,0.805931 -2.065198,0.805931 z m -5.809419,-3.844962 0.436546,14.003051 3.962494,2.552115 -0.201483,-13.650457 c -1.762974,-1.762974 -2.098779,-3.156563 -2.132359,-3.761011 v 0 c 0,0.01679 0,0.03358 -0.01679,0.05037 -0.285434,1.208896 -2.048408,0.805931 -2.048408,0.805932 z"
   id="path173"
   inkscape:connector-curvature="0"
   style="fill:#d59b29;stroke-width:1.67902291" />
<path
   class="st1"
   d="m 68.81698,46.587371 c 0,0 -0.03358,-0.03358 -0.06716,-0.06716 -0.352595,-0.386176 -1.981247,-2.132359 -2.21631,-2.300262 -0.268644,-0.184692 -0.873092,-0.453336 -1.124946,-0.453336 -0.268643,0 -0.268643,0 -0.268643,0 l 1.427169,2.770388"
   id="path175"
   inkscape:connector-curvature="0"
   style="fill:#d59b29;stroke-width:1.67902291" />
<path
   class="st1"
   d="m 63.192253,43.665871 -0.03358,4.080025 c 0,0 -0.486917,0.486917 -0.72198,0.587658 -0.235064,0.08395 -0.873092,-0.402965 -0.873092,-0.402965 v -3.307675"
   id="path177"
   inkscape:connector-curvature="0"
   style="fill:#d59b29;stroke-width:1.67902291" />
<path
   class="st1"
   d="m 67.524132,47.880218 -0.03358,4.247928 c 0,0 0.453336,0.268644 0.72198,0.134322 0.268643,-0.134322 0.486916,-0.990623 0.486916,-1.124945 0,-0.134322 0.06716,-2.686437 0.06716,-2.87113 0,-0.184692 0.369385,-0.805931 0.369385,-0.805931 l -1.578281,0.134322 z"
   id="path179"
   inkscape:connector-curvature="0"
   style="fill:#d59b29;stroke-width:1.67902291" />
<path
   class="st1"
   d="m 65.979431,47.074287 0.06716,3.139773 c 0,0 -1.208897,-1.343218 -1.360009,-1.880506 C 64.53547,47.796267 64.50189,47.124658 64.50189,47.124658 L 64.43473,45.10983 Z"
   id="path181"
   inkscape:connector-curvature="0"
   style="fill:#d59b29;stroke-width:1.67902291" />
<path
   class="st1"
   d="m 70.227359,49.391339 -0.06716,2.686437 c 0,0 0.906672,1.964456 1.175316,2.2331 0.268644,0.268644 0,-3.274095 0,-3.274095 z"
   id="path183"
   inkscape:connector-curvature="0"
   style="fill:#d59b29;stroke-width:1.67902291" />
<path
   class="st4"
   d="M 53.806515,154.86757 52.547248,0.06164536 50.767483,1.8414097 47.728452,1.3377028 l -1.779764,3.0390313 -3.542739,5.8262099 -2.787178,2.787178 -5.574356,0.503707 -2.283471,4.046445 -5.322503,3.290885 -5.540776,-0.520497 -2.535324,4.298298 -0.75556,9.368948 -2.535325,2.283472 1.007414,0.75556 1.007413,1.259267 v 2.787178 L 16.07887,42.070799 12.284278,81.309565 11.025011,83.593036 6.2062149,141.066 6.0718931,141.60329 Z M 20.612232,79.781654 21.535694,48.350345 c 0,0 9.284997,-12.340819 9.822284,-13.264281 0.537288,-0.923463 1.729394,-2.652857 1.729394,-2.652857 l 11.534887,1.863716 -1.46075,1.057784 -0.671609,30.642169 -1.443959,2.636066 v 3.055821 l -20.685563,10.20846 -1.192106,-1.595072 z"
   id="path185"
   inkscape:connector-curvature="0"
   style="fill:#724f43;stroke-width:1.67902291" />
<polygon
   class="st4"
   points="133.14,87.14 131.39,48.86 129.44,48.83 130.8,87.14 "
   id="polygon187"
   style="fill:#724f43"
   transform="matrix(1.6790229,0,0,1.6790229,-136.93049,-2.5072597)" />
<polygon
   class="st3"
   points="105.07,94.59 106,42.37 103.89,43.58 101.58,94.59 "
   id="polygon189"
   style="fill:#39251e"
   transform="matrix(1.6790229,0,0,1.6790229,-136.93049,-2.5072597)" />
<polygon
   class="st3"
   points="93.94,22.58 92.78,48.03 90.95,52.22 88.65,88.19 91.13,88.19 95.55,21.44 "
   id="polygon191"
   style="fill:#39251e"
   transform="matrix(1.6790229,0,0,1.6790229,-136.93049,-2.5072597)" />
<polyline
   class="st3"
   points="112.91,8.12 97.48,19.67 112.92,11.26 "
   id="polyline193"
   style="fill:#39251e"
   transform="matrix(1.6790229,0,0,1.6790229,-136.93049,-2.5072597)" />
<polyline
   class="st3"
   points="94.88,42.06 94.36,49.42 93.32,49.69 93.81,42.46 "
   id="polyline195"
   style="fill:#39251e"
   transform="matrix(1.6790229,0,0,1.6790229,-136.93049,-2.5072597)" />



</svg>